<svg width="24" height="24" viewBox="0 0 24 24" fill="none" xmlns="http://www.w3.org/2000/svg">
<path d="M14.5 18.5C14.5 19.6046 13.5 20.5 12 20.5001C10.5 20.5001 9.5 19.6046 9.5 18.5001M20 17.0001L19.1716 16.1716C18.4214 15.4215 18 14.4041 18 13.3432V10.0001C18 7.38764 16.3304 5.16516 14 4.34149C14 4.34149 14 2 12 2C10 2 10 4.34149 10 4.34149C7.66962 5.16516 6 7.38764 6 10.0001V13.3432C6 14.4041 5.57857 15.4215 4.82843 16.1716L4 17.0001V18.0001H20V17.0001Z" stroke="black" stroke-width="1.5" stroke-linecap="round" stroke-linejoin="round"/>
</svg>
