<svg width="24" height="24" viewBox="0 0 24 24" fill="none" xmlns="http://www.w3.org/2000/svg">
<path d="M10.1118 3.88156L10.8581 3.95619V3.95619L10.1118 3.88156ZM8.17418 4.97239L8.53337 5.63078L8.17418 4.97239ZM6.58887 4.68324L6.05854 4.15291L6.58887 4.68324ZM7.25905 4.64982L7.73397 4.06935L7.25905 4.64982ZM4.64979 7.25908L4.06932 7.73401L4.64979 7.25908ZM4.97237 8.17422L5.63076 8.5334L4.97237 8.17422ZM4.92469 7.59507L4.34422 8.06999L4.92469 7.59507ZM3.88156 10.1118L3.80693 9.36557L3.88156 10.1118ZM3.45025 10.155L3.52488 10.9013L3.45025 10.155ZM3.45025 13.845L3.37562 14.5913L3.45025 13.845ZM3.88156 13.8882L3.95619 13.1419L3.88156 13.8882ZM4.92471 16.405L4.34424 15.93L4.92471 16.405ZM4.97239 15.8258L4.31399 16.185L4.97239 15.8258ZM4.68324 17.4111L4.15291 17.9415L4.68324 17.4111ZM4.64982 16.741L4.06935 16.266L4.64982 16.741ZM7.25908 19.3502L7.73401 19.9307L7.25908 19.3502ZM6.58891 19.3168L7.11924 18.7865L6.58891 19.3168ZM8.17422 19.0276L7.81503 19.686L8.17422 19.0276ZM7.59507 19.0753L8.06999 19.6558L7.59507 19.0753ZM9.73611 19.6752L9.52423 20.3946L9.73611 19.6752ZM13.845 20.5498L13.0987 20.4751L13.845 20.5498ZM14.2639 19.6752L14.4758 20.3946L14.2639 19.6752ZM13.8882 20.1184L13.1419 20.0438L13.8882 20.1184ZM16.4049 19.0753L16.8799 18.4948L16.4049 19.0753ZM15.8258 19.0276L16.185 19.686L15.8258 19.0276ZM16.741 19.3503L17.2159 18.7698L16.741 19.3503ZM19.3502 16.741L19.9307 16.2661L19.3502 16.741ZM19.0276 15.8258L18.3692 15.4666L19.0276 15.8258ZM19.0753 16.405L18.4948 16.8799L19.0753 16.405ZM20.1184 13.8882L20.0438 13.1419L20.1184 13.8882ZM19.6752 14.2639L20.3946 14.4758L19.6752 14.2639ZM20.5498 13.845L20.6244 14.5913L20.5498 13.845ZM20.5498 10.155L20.6244 9.4087L20.5498 10.155ZM19.6752 9.7361L18.9557 9.94798L19.6752 9.7361ZM20.1184 10.1118L20.0438 10.8581L20.1184 10.1118ZM19.0753 7.59507L18.4948 7.12014L19.0753 7.59507ZM19.0276 8.17422L18.3692 8.53341L19.0276 8.17422ZM19.3503 7.25904L19.9307 7.73396L19.3503 7.25904ZM16.741 4.64978L17.2159 5.23024L16.741 4.64978ZM17.4112 4.6832L17.9415 4.15287L17.4112 4.6832ZM16.405 4.92471L15.93 4.34424L16.405 4.92471ZM13.8882 3.88156L13.1419 3.95619L13.8882 3.88156ZM14.2639 4.32483L14.052 5.04428L14.2639 4.32483ZM10.155 3.45025L9.4087 3.37562L10.155 3.45025ZM13.845 3.45025L14.5913 3.37562L13.845 3.45025ZM13.3475 2.25H10.6525V3.75H13.3475V2.25ZM14.6344 3.80693L14.5913 3.37562L13.0987 3.52488L13.1419 3.95619L14.6344 3.80693ZM14.052 5.04428C14.5476 5.19022 15.0212 5.38776 15.4666 5.63078L16.185 4.31399C15.6471 4.02055 15.0749 3.78181 14.4758 3.60538L14.052 5.04428ZM16.2661 4.06931L15.93 4.34424L16.8799 5.50517L17.2159 5.23024L16.2661 4.06931ZM19.8472 6.05853L17.9415 4.15287L16.8808 5.21353L18.7865 7.11919L19.8472 6.05853ZM19.6558 8.07L19.9307 7.73396L18.7698 6.78411L18.4948 7.12014L19.6558 8.07ZM18.3692 8.53341C18.6122 8.97885 18.8098 9.45243 18.9557 9.94798L20.3946 9.52423C20.2182 8.92515 19.9795 8.35291 19.686 7.81504L18.3692 8.53341ZM20.6244 9.4087L20.1931 9.36557L20.0438 10.8581L20.4751 10.9013L20.6244 9.4087ZM21.75 13.3475V10.6525H20.25V13.3475H21.75ZM20.1931 14.6344L20.6244 14.5913L20.4751 13.0987L20.0438 13.1419L20.1931 14.6344ZM18.9557 14.052C18.8098 14.5476 18.6122 15.0212 18.3692 15.4666L19.686 16.185C19.9795 15.6471 20.2182 15.0749 20.3946 14.4758L18.9557 14.052ZM19.9307 16.2661L19.6558 15.93L18.4948 16.8799L18.7698 17.2159L19.9307 16.2661ZM17.9415 19.8472L19.8471 17.9415L18.7865 16.8808L16.8808 18.7865L17.9415 19.8472ZM15.93 19.6558L16.266 19.9307L17.2159 18.7698L16.8799 18.4948L15.93 19.6558ZM15.4666 18.3692C15.0211 18.6123 14.5476 18.8098 14.052 18.9557L14.4758 20.3946C15.0748 20.2182 15.6471 19.9795 16.185 19.686L15.4666 18.3692ZM14.5913 20.6244L14.6344 20.1931L13.1419 20.0438L13.0987 20.4751L14.5913 20.6244ZM10.6525 21.75H13.3475V20.25H10.6525V21.75ZM9.36557 20.1931L9.4087 20.6244L10.9013 20.4751L10.8581 20.0438L9.36557 20.1931ZM9.94798 18.9557C9.45243 18.8098 8.97885 18.6122 8.5334 18.3692L7.81503 19.686C8.35291 19.9795 8.92515 20.2182 9.52423 20.3946L9.94798 18.9557ZM7.73401 19.9307L8.06999 19.6558L7.12014 18.4948L6.78415 18.7697L7.73401 19.9307ZM4.15291 17.9415L6.05858 19.8471L7.11924 18.7865L5.21357 16.8808L4.15291 17.9415ZM4.34424 15.93L4.06935 16.266L5.23029 17.2159L5.50518 16.8799L4.34424 15.93ZM5.63078 15.4666C5.38776 15.0212 5.19022 14.5476 5.04428 14.052L3.60538 14.4758C3.78181 15.0749 4.02055 15.6471 4.31399 16.185L5.63078 15.4666ZM3.37562 14.5913L3.80693 14.6344L3.95619 13.1419L3.52488 13.0987L3.37562 14.5913ZM2.25 10.6525V13.3475H3.75V10.6525H2.25ZM3.80693 9.36557L3.37562 9.4087L3.52488 10.9013L3.95619 10.8581L3.80693 9.36557ZM5.04428 9.94798C5.19022 9.45243 5.38775 8.97885 5.63076 8.5334L4.31397 7.81503C4.02053 8.35291 3.78181 8.92515 3.60538 9.52423L5.04428 9.94798ZM4.06932 7.73401L4.34422 8.06999L5.50515 7.12014L5.23026 6.78415L4.06932 7.73401ZM6.05854 4.15291L4.15288 6.05858L5.21354 7.11924L7.1192 5.21357L6.05854 4.15291ZM8.06995 4.34424L7.73397 4.06935L6.78412 5.23029L7.12009 5.50518L8.06995 4.34424ZM8.53337 5.63078C8.97882 5.38776 9.45242 5.19022 9.94798 5.04428L9.52423 3.60538C8.92514 3.78181 8.35288 4.02055 7.81499 4.31399L8.53337 5.63078ZM9.4087 3.37562L9.36557 3.80693L10.8581 3.95619L10.9013 3.52488L9.4087 3.37562ZM9.94798 5.04428C10.4251 4.90378 10.8048 4.48919 10.8581 3.95619L9.36557 3.80693C9.37676 3.69496 9.45305 3.62634 9.52423 3.60538L9.94798 5.04428ZM7.12009 5.50518C7.53468 5.84438 8.09653 5.8691 8.53337 5.63078L7.81499 4.31399C7.88033 4.27834 7.98289 4.27301 8.06995 4.34424L7.12009 5.50518ZM7.1192 5.21357C7.02839 5.30439 6.88352 5.31162 6.78412 5.23029L7.73397 4.06935C7.23695 3.66269 6.51264 3.69882 6.05854 4.15291L7.1192 5.21357ZM5.23026 6.78415C5.31159 6.88356 5.30436 7.02842 5.21354 7.11924L4.15288 6.05858C3.69879 6.51267 3.66266 7.23698 4.06932 7.73401L5.23026 6.78415ZM5.63076 8.5334C5.86908 8.09657 5.84436 7.53472 5.50515 7.12014L4.34422 8.06999C4.27299 7.98294 4.27832 7.88037 4.31397 7.81503L5.63076 8.5334ZM3.95619 10.8581C4.48919 10.8048 4.90378 10.4251 5.04428 9.94798L3.60538 9.52423C3.62634 9.45305 3.69496 9.37676 3.80693 9.36557L3.95619 10.8581ZM3.75 10.6525C3.75 10.7809 3.65268 10.8885 3.52488 10.9013L3.37562 9.4087C2.73662 9.4726 2.25 10.0103 2.25 10.6525H3.75ZM3.52488 13.0987C3.65268 13.1115 3.75 13.2191 3.75 13.3475H2.25C2.25 13.9897 2.73662 14.5274 3.37562 14.5913L3.52488 13.0987ZM5.04428 14.052C4.90378 13.5749 4.48919 13.1952 3.95619 13.1419L3.80693 14.6344C3.69496 14.6232 3.62634 14.547 3.60538 14.4758L5.04428 14.052ZM5.50518 16.8799C5.84438 16.4653 5.8691 15.9035 5.63078 15.4666L4.31399 16.185C4.27834 16.1197 4.27301 16.0171 4.34424 15.93L5.50518 16.8799ZM5.21357 16.8808C5.30439 16.9716 5.31162 17.1165 5.23029 17.2159L4.06935 16.266C3.66269 16.7631 3.69882 17.4874 4.15291 17.9415L5.21357 16.8808ZM6.78415 18.7697C6.88356 18.6884 7.02842 18.6956 7.11924 18.7865L6.05858 19.8471C6.51267 20.3012 7.23698 20.3373 7.73401 19.9307L6.78415 18.7697ZM8.5334 18.3692C8.09657 18.1309 7.53472 18.1556 7.12014 18.4948L8.06999 19.6558C7.98293 19.727 7.88037 19.7217 7.81503 19.686L8.5334 18.3692ZM10.8581 20.0438C10.8048 19.5108 10.4251 19.0962 9.94798 18.9557L9.52423 20.3946C9.45305 20.3737 9.37676 20.305 9.36557 20.1931L10.8581 20.0438ZM10.6525 20.25C10.7809 20.25 10.8885 20.3473 10.9013 20.4751L9.4087 20.6244C9.4726 21.2634 10.0103 21.75 10.6525 21.75V20.25ZM13.0987 20.4751C13.1115 20.3473 13.2191 20.25 13.3475 20.25V21.75C13.9897 21.75 14.5274 21.2634 14.5913 20.6244L13.0987 20.4751ZM14.052 18.9557C13.5749 19.0962 13.1952 19.5108 13.1419 20.0438L14.6344 20.1931C14.6232 20.305 14.547 20.3737 14.4758 20.3946L14.052 18.9557ZM16.8799 18.4948C16.4653 18.1556 15.9034 18.1309 15.4666 18.3692L16.185 19.686C16.1196 19.7217 16.0171 19.727 15.93 19.6558L16.8799 18.4948ZM16.8808 18.7865C16.9716 18.6957 17.1165 18.6885 17.2159 18.7698L16.266 19.9307C16.7631 20.3374 17.4874 20.3013 17.9415 19.8472L16.8808 18.7865ZM18.7698 17.2159C18.6884 17.1165 18.6956 16.9717 18.7865 16.8808L19.8471 17.9415C20.3012 17.4874 20.3373 16.7631 19.9307 16.2661L18.7698 17.2159ZM18.3692 15.4666C18.1309 15.9035 18.1556 16.4653 18.4948 16.8799L19.6558 15.93C19.727 16.0171 19.7217 16.1197 19.686 16.185L18.3692 15.4666ZM20.0438 13.1419C19.5108 13.1952 19.0962 13.5749 18.9557 14.052L20.3946 14.4758C20.3737 14.547 20.305 14.6232 20.1931 14.6344L20.0438 13.1419ZM20.25 13.3475C20.25 13.2191 20.3473 13.1115 20.4751 13.0987L20.6244 14.5913C21.2634 14.5274 21.75 13.9897 21.75 13.3475H20.25ZM20.4751 10.9013C20.3473 10.8885 20.25 10.7809 20.25 10.6525H21.75C21.75 10.0103 21.2634 9.4726 20.6244 9.4087L20.4751 10.9013ZM18.9557 9.94798C19.0962 10.4251 19.5108 10.8048 20.0438 10.8581L20.1931 9.36557C20.305 9.37676 20.3737 9.45305 20.3946 9.52423L18.9557 9.94798ZM18.4948 7.12014C18.1556 7.53472 18.1309 8.09657 18.3692 8.53341L19.686 7.81504C19.7217 7.88038 19.727 7.98294 19.6558 8.07L18.4948 7.12014ZM18.7865 7.11919C18.6957 7.02837 18.6885 6.88351 18.7698 6.78411L19.9307 7.73396C20.3374 7.23694 20.3013 6.51263 19.8472 6.05853L18.7865 7.11919ZM17.2159 5.23024C17.1165 5.31158 16.9717 5.30435 16.8808 5.21353L17.9415 4.15287C17.4874 3.69878 16.7631 3.66265 16.2661 4.06931L17.2159 5.23024ZM15.4666 5.63078C15.9035 5.86909 16.4653 5.84438 16.8799 5.50517L15.93 4.34424C16.0171 4.27301 16.1197 4.27834 16.185 4.31399L15.4666 5.63078ZM13.1419 3.95619C13.1952 4.48919 13.5749 4.90378 14.052 5.04428L14.4758 3.60538C14.547 3.62634 14.6232 3.69496 14.6344 3.80693L13.1419 3.95619ZM10.6525 2.25C10.0103 2.25 9.4726 2.73662 9.4087 3.37562L10.9013 3.52488C10.8885 3.65268 10.7809 3.75 10.6525 3.75V2.25ZM13.3475 3.75C13.2191 3.75 13.1115 3.65268 13.0987 3.52488L14.5913 3.37562C14.5274 2.73662 13.9897 2.25 13.3475 2.25V3.75Z" fill="black"/>
<circle r="3" transform="matrix(1 0 0 -1 12 12)" stroke="black" stroke-width="1.5" stroke-miterlimit="1" stroke-linecap="round" stroke-linejoin="round"/>
</svg>
