<svg width="24" height="24" viewBox="0 0 24 24" fill="none" xmlns="http://www.w3.org/2000/svg">
<path d="M10 14.5C10 14.2239 10.2239 14 10.5 14H13.5C13.7761 14 14 14.2239 14 14.5V20H10V14.5Z" stroke="black" stroke-width="1.5" stroke-linecap="round" stroke-linejoin="round"/>
<path d="M17.5 7V5M10.8 3.9L4.8 8.4C4.29639 8.77771 4 9.37049 4 10V18C4 19.1046 4.89543 20 6 20H18C19.1046 20 20 19.1046 20 18V10C20 9.37049 19.7036 8.77771 19.2 8.4L13.2 3.9C12.4889 3.36667 11.5111 3.36667 10.8 3.9Z" stroke="black" stroke-width="1.5" stroke-linecap="round" stroke-linejoin="round"/>
</svg>
