<svg width="24" height="24" viewBox="0 0 24 24" fill="none" xmlns="http://www.w3.org/2000/svg">
<path d="M13.5134 8.06228C13.6345 7.54872 14.3655 7.54872 14.4866 8.06228L15.3144 11.5702C15.4449 12.1233 15.8767 12.5551 16.4298 12.6856L19.9377 13.5134C20.4513 13.6345 20.4513 14.3655 19.9377 14.4866L16.4298 15.3144C15.8767 15.4449 15.4449 15.8767 15.3144 16.4298L14.4866 19.9377C14.3655 20.4513 13.6345 20.4513 13.5134 19.9377L12.6856 16.4298C12.5551 15.8767 12.1233 15.4449 11.5702 15.3144L8.06228 14.4866C7.54872 14.3655 7.54872 13.6345 8.06228 13.5134L11.5702 12.6856C12.1233 12.5551 12.5551 12.1233 12.6856 11.5702L13.5134 8.06228Z" fill="black"/>
<path d="M6.30535 3.82491C6.35382 3.61949 6.64618 3.61949 6.69465 3.82491L7.21717 6.03923C7.30417 6.40794 7.59206 6.69583 7.96077 6.78283L10.1751 7.30535C10.3805 7.35382 10.3805 7.64618 10.1751 7.69465L7.96077 8.21717C7.59206 8.30417 7.30417 8.59206 7.21717 8.96077L6.69465 11.1751C6.64618 11.3805 6.35382 11.3805 6.30535 11.1751L5.78283 8.96077C5.69583 8.59206 5.40794 8.30417 5.03923 8.21717L2.82491 7.69465C2.61949 7.64618 2.61949 7.35382 2.82491 7.30535L5.03923 6.78283C5.40794 6.69583 5.69583 6.40794 5.78283 6.03923L6.30535 3.82491Z" fill="black"/>
<circle cx="13" cy="3" r="1" fill="black"/>
</svg>
